HIERARCHY
ROOT hip
{
	OFFSET 0.000000 0.000000 0.000000
	CHANNELS 6 Xposition Yposition Zposition Zrotation Yrotation Xrotation 
	JOINT lhipjoint
	{
		OFFSET 0.000000 0.000000 0.000000
		CHANNELS 3 Zrotation Yrotation Xrotation
		JOINT lfemur
		{
			OFFSET 1.363060 -1.794630 0.839290
			CHANNELS 3 Zrotation Yrotation Xrotation
			JOINT ltibia
			{
				OFFSET 2.448110 -6.726130 0.000000
				CHANNELS 3 Zrotation Yrotation Xrotation
				JOINT lfoot
				{
					OFFSET 2.562200 -7.039590 0.000000
					CHANNELS 3 Zrotation Yrotation Xrotation
					JOINT ltoes
					{
						OFFSET 0.157640 -0.433110 2.322550
						CHANNELS 3 Zrotation Yrotation Xrotation
						End Site
						{
							OFFSET 0.000000 0.000000 0.000000
						}
					}
				}
			}
		}
	}
	JOINT rhipjoint
	{
		OFFSET 0.000000 0.000000 0.000000
		CHANNELS 3 Zrotation Yrotation Xrotation
		JOINT rfemur
		{
			OFFSET -1.305520 -1.794630 0.839290
			CHANNELS 3 Zrotation Yrotation Xrotation
			JOINT rtibia
			{
				OFFSET -2.542530 -6.985550 0.000000
				CHANNELS 3 Zrotation Yrotation Xrotation
				JOINT rfoot
				{
					OFFSET -2.568260 -7.056230 0.000000
					CHANNELS 3 Zrotation Yrotation Xrotation
					JOINT rtoes
					{
						OFFSET -0.164730 -0.452590 2.363150
						CHANNELS 3 Zrotation Yrotation Xrotation
						End Site
						{
							OFFSET 0.000000 0.000000 0.000000
						}
					}
				}
			}
		}
	}
	JOINT lowerback
	{
		OFFSET 0.000000 0.000000 0.000000
		CHANNELS 3 Zrotation Yrotation Xrotation
		JOINT upperback
		{
			OFFSET 0.028270 2.035590 -0.193380
			CHANNELS 3 Zrotation Yrotation Xrotation
			JOINT thorax
			{
				OFFSET 0.056720 2.048850 -0.042750
				CHANNELS 3 Zrotation Yrotation Xrotation
				JOINT lowerneck
				{
					OFFSET 0.000000 0.000000 0.000000
					CHANNELS 3 Zrotation Yrotation Xrotation
					JOINT upperneck
					{
						OFFSET -0.054170 1.746240 0.172020
						CHANNELS 3 Zrotation Yrotation Xrotation
						JOINT head
						{
							OFFSET 0.104070 1.761360 -0.123970
							CHANNELS 3 Zrotation Yrotation Xrotation
							End Site
							{
								OFFSET 0.000000 0.000000 0.000000
							}
						}
					}
				}
				JOINT lclavicle
				{
					OFFSET 0.000000 0.000000 0.000000
					CHANNELS 3 Zrotation Yrotation Xrotation
					JOINT lhumerus
					{
						OFFSET 3.362410 1.200890 -0.311210
						CHANNELS 3 Zrotation Yrotation Xrotation
						JOINT lradius
						{
							OFFSET 4.983000 -0.000000 -0.000000
							CHANNELS 3 Zrotation Yrotation Xrotation
							JOINT lwrist
							{
								OFFSET 3.483560 -0.000000 -0.000000
								CHANNELS 3 Zrotation Yrotation Xrotation
								JOINT lhand
								{
									OFFSET 0.000000 0.000000 0.000000
									CHANNELS 3 Zrotation Yrotation Xrotation
									JOINT lfingers
									{
										OFFSET 0.715260 -0.000000 -0.000000
										CHANNELS 3 Zrotation Yrotation Xrotation
										End Site
										{
											OFFSET 0.000000 0.000000 0.000000
										}
									}
								}
								JOINT lthumb
								{
									OFFSET 0.000000 0.000000 0.000000
									CHANNELS 3 Zrotation Yrotation Xrotation
									End Site
									{
										OFFSET 0.000000 0.000000 0.000000
									}
								}
							}
						}
					}
				}
				JOINT rclavicle
				{
					OFFSET 0.000000 0.000000 0.000000
					CHANNELS 3 Zrotation Yrotation Xrotation
					JOINT rhumerus
					{
						OFFSET -3.136600 1.374050 -0.404650
						CHANNELS 3 Zrotation Yrotation Xrotation
						JOINT rradius
						{
							OFFSET -5.241900 -0.000000 -0.000000
							CHANNELS 3 Zrotation Yrotation Xrotation
							JOINT rwrist
							{
								OFFSET -3.444170 -0.000000 -0.000000
								CHANNELS 3 Zrotation Yrotation Xrotation
								JOINT rhand
								{
									OFFSET 0.000000 0.000000 0.000000
									CHANNELS 3 Zrotation Yrotation Xrotation
									JOINT rfingers
									{
										OFFSET -0.622530 -0.000000 -0.000000
										CHANNELS 3 Zrotation Yrotation Xrotation
										End Site
										{
											OFFSET 0.000000 0.000000 0.000000
										}
									}
								}
								JOINT rthumb
								{
									OFFSET 0.000000 0.000000 0.000000
									CHANNELS 3 Zrotation Yrotation Xrotation
									End Site
									{
										OFFSET 0.000000 0.000000 0.000000
									}
								}
							}
						}
					}
				}
			}
		}
	}
}
MOTION
Frames: 5
Frame Time: 0.008333
0.290878 17.981621 2.066891 -174.225486 -8.736700 168.766124 -1.909785 2.867085 2.080165 -9.744939 2.473279 4.172641 0.694531 5.216120 16.100940 0.629017 -2.591056 4.625437 0.821400 -5.782900 -16.155800 0.322533 -4.105709 1.305140 24.838145 -0.942901 4.642710 -1.919726 -6.250835 22.278819 4.343978 -19.437219 -8.466764 -0.088800 1.921900 -5.289900 1.687179 -0.103208 13.742927 1.606414 -1.248063 -2.295631 4.741653 -0.931631 7.364356 -6.625950 -8.048206 -12.260555 0.653274 -9.439339 1.910659 4.330800 -4.012300 2.440200 0.281247 3.987357 0.664907 -81.555138 -22.365623 69.846053 97.290191 -62.675920 -54.735858 -2.800544 1.130411 -86.080607 23.736983 -4.945406 -3.405600 -7.125000 0.000000 0.000000 -2.904200 21.181700 1.660700 0.834740 -0.602920 2.703314 76.830939 10.377280 72.223754 -105.453362 55.316549 -56.641822 1.118358 -5.347839 1.513842 -40.568514 -2.177262 -4.655200 7.125000 0.000000 0.000000 -11.439400 -23.079200 -6.159200 
0.291800 17.981621 2.070990 -174.241525 -8.902332 168.740848 -1.909621 2.866309 2.079153 -9.767930 2.450286 4.141188 0.695093 5.220284 16.118506 0.648519 -2.716636 4.716508 0.819900 -5.777700 -16.140700 0.323909 -4.105840 1.304077 24.801200 -1.019603 4.628612 -1.922515 -6.253446 22.288691 4.357214 -19.493692 -8.525550 -0.087000 1.902500 -5.236200 1.608538 -0.134841 13.822969 1.612187 -1.297798 -2.296523 4.825917 -0.972450 7.378500 -6.646729 -8.088129 -12.486923 0.636902 -9.483894 1.897148 4.309500 -4.033700 2.497900 0.285198 3.990500 0.662841 -81.831729 -22.853213 69.653493 97.190247 -62.710075 -54.603744 -2.786082 1.066184 -85.747587 23.172299 -4.190104 -3.002100 -7.125000 0.000000 0.000000 -3.244100 22.069100 1.790300 0.857398 -0.610061 2.677450 76.546117 10.570993 71.501959 -105.710331 55.192063 -56.917203 0.982554 -5.361507 1.879866 -39.830347 -0.897812 -5.540900 7.125000 0.000000 0.000000 -10.628300 -21.638100 -6.063100 
0.292722 17.982236 2.075193 -174.238684 -9.051055 168.735259 -1.909727 2.864315 2.080030 -9.779402 2.385863 4.105487 0.695084 5.224228 16.131035 0.660309 -2.790877 4.783878 0.818900 -5.774200 -16.130600 0.325470 -4.106243 1.304616 24.791485 -1.070896 4.593985 -1.925102 -6.255566 22.296698 4.374001 -19.561670 -8.572649 -0.086100 1.892700 -5.209300 1.560517 -0.167972 13.892120 1.617077 -1.343799 -2.303135 4.884044 -1.004639 7.369476 -6.641076 -8.119504 -12.711278 0.604298 -9.517823 1.886808 4.275200 -4.051700 2.554200 0.287136 3.976180 0.660149 -81.997533 -23.011049 69.054329 97.245724 -62.705774 -54.628597 -2.744843 1.001652 -85.097590 22.362537 -3.400063 -2.558000 -7.125000 0.000000 0.000000 -3.764600 23.030600 1.995900 0.881004 -0.597887 2.647302 76.297370 10.545167 70.290989 -106.071034 55.029278 -57.318889 0.802177 -5.368278 2.575776 -38.814442 0.621081 -6.463600 7.125000 0.000000 0.000000 -9.590700 -20.013800 -5.810200 
0.291800 17.982954 2.079702 -174.276316 -9.202097 168.732004 -1.910824 2.862224 2.079069 -9.840976 2.338963 4.075232 0.695139 5.223870 16.138189 0.672064 -2.868655 4.854465 0.825000 -5.795000 -16.190600 0.328735 -4.108189 1.305379 24.716307 -1.167803 4.539696 -1.927894 -6.261083 22.309580 4.382973 -19.594830 -8.574504 -0.088900 1.923100 -5.293300 1.486344 -0.200487 13.964197 1.619002 -1.393473 -2.308374 4.946458 -1.038010 7.355292 -6.668646 -8.146602 -12.920105 0.594203 -9.544730 1.869797 4.263500 -4.063700 2.607800 0.280311 3.947366 0.656933 -82.065072 -23.069384 68.338014 97.470898 -62.655587 -54.812478 -2.688409 0.930995 -84.461058 21.426661 -2.640218 -2.129300 -7.125000 0.000000 0.000000 -4.390600 23.973800 2.234200 0.904727 -0.566606 2.609887 76.042208 10.256872 68.724406 -106.645785 54.777696 -57.975510 0.580890 -5.345883 3.750408 -37.440039 2.248303 -7.233500 7.125000 0.000000 0.000000 -8.312900 -18.438000 -5.313200 
0.291185 17.983261 2.084212 -174.297014 -9.315038 168.714024 -1.910859 2.860496 2.078222 -9.873907 2.327672 4.055254 0.695113 5.222900 16.142606 0.684114 -2.947865 4.922723 0.823900 -5.791400 -16.180500 0.330888 -4.110201 1.306335 24.668306 -1.226560 4.511782 -1.930536 -6.266193 22.322959 4.390251 -19.623624 -8.591940 -0.088700 1.921300 -5.288300 1.441969 -0.214851 14.054089 1.618616 -1.418420 -2.311374 4.979672 -1.056247 7.333169 -6.639845 -8.174925 -13.121788 0.555924 -9.577503 1.854537 4.224600 -4.081200 2.654600 0.273007 3.913314 0.651059 -82.036919 -23.171370 67.704281 97.776546 -62.577316 -55.079983 -2.629277 0.861481 -83.893633 20.555611 -1.966120 -1.766100 -7.125000 0.000000 0.000000 -4.985900 24.811600 2.442200 0.935152 -0.528352 2.569767 75.784998 9.921735 67.024175 -107.337874 54.479865 -58.787173 0.354895 -5.282957 5.183954 -35.752896 3.755791 -7.679700 7.125000 0.000000 0.000000 -6.874400 -17.177200 -4.570800 
